<?xml version="1.0" encoding="UTF-8"?>
<svg width="18.318mm" height="47.508mm" version="1.1" viewBox="0 0 18.318 47.508" xmlns="http://www.w3.org/2000/svg">
 <g transform="translate(-27.127 -133.39)">
  <g transform="translate(-20.411 44.601)">
   <g transform="matrix(.26458 0 0 .26458 45.594 89.741)">
    <path class="st0" d="m68.2 172.2h-53.4c0.2-0.8 0.1-1.6 0.1-2.4 0-1.3-0.1-2.4 1.3-3.4 1.6-1.1 3-2.6 4.2-4.2 1.1-1.5 2.4-2.8 3.3-4.4 1.7-3 2.7-6.3 3.5-9.6 0.5-2.2 0.9-4.4 1.2-6.5 0.4-2.4 0.7-4.8 1.1-7.2 0.4-2.9 0.7-5.8 1-8.7 0.2-1.8 0.6-3.5 0.6-5.3 0-0.6 0-1.3 0.3-1.9 0.3-0.8 0.1-1.3-0.7-1.6-4.1-1.8-6-5.5-7.3-9.5-1.3-3.7-2.1-7.5-2.7-11.4-0.4-2.3-1-4.5-1.3-6.8-0.4-2.9-0.9-5.7-1.4-8.6l-1.2-8.4c-0.2-1.4-0.4-2.7-0.5-4.1-0.3-2.9-1.4-5.8-1.1-8.8v-0.8c-0.1-0.9 0.2-1.1 1.1-1.1h15.9c0.8 0 1-0.2 1-1v-13.6c0-1-0.3-1.2-1.3-1.2h-20.7c-0.1-6-0.1-12.1 0-18.1h20.8c0.9 0 1.2-0.2 1.2-1.1v-21.3c0-0.3 0.1-0.7-0.1-1h17.6c-0.2 0.3-0.1 0.7-0.1 1v21.2c0 1 0.2 1.2 1.2 1.2h19.9c0.9 0 1.1 0.2 1.1 1.1 0 5.2-0.1 10.4 0 15.6 0 1.3-0.4 1.4-1.5 1.4-6.5-0.1-13.1 0-19.6 0-0.8 0-1 0.2-1 1v13.6c0 0.9 0.2 1.2 1.2 1.2 5.2 0 10.4 0 15.5-0.1 1.1 0 1.3 0.3 1.2 1.3-0.1 2.1 0.1 4.1-0.5 6.1-0.5 1.8-0.6 3.8-0.9 5.7-0.2 1.6-0.5 3.2-0.7 4.9-0.2 2.4-0.8 4.8-1.1 7.2-0.2 2-0.8 4-1 6-0.4 3.9-1.3 7.6-2 11.4-0.7 3.4-1.5 6.8-2.9 9.9s-3.3 5.8-6.5 7.1c-0.7 0.3-0.9 0.8-0.7 1.5 0.3 0.9 0.4 1.9 0.4 2.8 0 2.4 0.5 4.7 0.8 7l0.9 7.5c-0.1 0-0.3 0-0.3 0.2 0 0.1 0.2 0.1 0.3 0.1l0.6 3.6c0.5 2.2 0.8 4.3 1.2 6.5 0.6 3.3 1.5 6.5 2.8 9.6 1 2.3 2.5 4.1 4 6 1.4 1.8 3 3.4 4.7 4.9 0.9 0.7 0.9 1.4 0.9 2.3-0.5 1.1-0.6 2.2-0.4 3.2zm-23.9-105.2v-30c0-1.2 0.4-1.4 1.5-1.4 6.6 0.1 13.3 0 19.9 0 0.8 0 1.1-0.2 1.1-1-0.1-1.4-0.1-2.9 0-4.4 0-0.8-0.2-1-1-1h-20.2c-0.9 0-1.1-0.2-1.1-1.1v-21.9c0-0.8-0.2-1.1-1-1-1.2 0.1-2.4 0.1-3.5 0-0.9-0.1-1.2 0.3-1.1 1.2v21.5c0 1-0.2 1.4-1.3 1.4-6.7-0.1-13.3 0-20-0.1-0.8 0-1.2 0.2-1.1 1.1 0.1 1.4 0.1 2.8 0 4.2-0.1 0.9 0.2 1.1 1.1 1.1 6.7 0 13.3 0 20-0.1 1.1 0 1.3 0.3 1.3 1.3v59.7 0.8c-0.1 0.6 0.2 0.7 0.7 0.7 1.3 0 2.5-0.1 3.8 0 0.9 0 1.2-0.2 1.2-1.1-0.3-9.8-0.3-19.8-0.3-29.9z" fill="#b23118"/>
   </g>
  </g>
 </g>
 <style type="text/css">.st0{fill:#B23118;}</style>
</svg>
